<svg xmlns="http://www.w3.org/2000/svg" xmlns:xlink="http://www.w3.org/1999/xlink" version="1.1" viewBox="0 0 100 100">


    <defs>
        <g id="background">
        </g><mask id="mask">
        <path fill="#FFFFFF" stroke="none" d=" M 82.2 82.15 Q 95.5 68.85 95.5 49.95 95.5 31.1 82.2 17.8 68.85 4.5 50 4.5 31.15 4.5 17.8 17.8 4.5 31.1 4.5 49.95 4.5 68.85 17.8 82.15 31.15 95.45 50 95.45 68.85 95.45 82.2 82.15 Z"/>
    </mask>

        <linearGradient id="background-gradient" x1="0" y1="0" y2="1" x2="0" >
            <stop stop-color="#514090" offset="0%"/>
            <stop stop-color="#000000" offset="100%"/>
        </linearGradient>



        <g transform="scale(0.36730686432726) translate(-13.873990058898926 -13.874542236328125)" id="picture"><path d="M14.24 81.385l7.93.033c.566.002 1.131.373 1.13.742l-.038 15.122c-.001.369-.569.736-1.135.733l-7.93-.033-.016 6.27 54.94.229-.23 89.627-54.94-.229-.017 6.27 7.93.033c.566.003 1.131.374 1.13.743l-.04 15.49c0 .37-.568.736-1.134.734l-7.93-.033-.016 6.27 271.87 1.131.017-6.27-9.062-.038c-.567-.002-1.132-.373-1.131-.742l.039-15.122c0-.37.568-.736 1.134-.733l9.063.037.016-6.27-60.605-.252.231-89.627 60.605.252.016-6.27-9.062-.038c-.567-.002-1.132-.373-1.131-.742l.039-15.122c0-.37.568-.736 1.134-.733l9.063.037.016-6.27-271.87-1.13-.016 5.9zm244.377 120.151c.566.003 1.131.374 1.13.743l-.038 15.122c-.001.369-.569.735-1.135.733l-15.86-.066c-.566-.003-1.131-.374-1.13-.743l.039-15.122c0-.369.568-.735 1.135-.733l15.859.066zm-33.418-.139c.567.003 1.132.374 1.131.743l-.039 15.122c0 .369-.568.735-1.135.733l-15.859-.066c-.566-.003-1.131-.374-1.13-.743l.038-15.122c.001-.369.569-.735 1.135-.733l15.86.066zm-33.984-.141c.567.002 1.132.373 1.131.742l-.039 15.122c0 .37-.568.736-1.134.733l-15.86-.066c-.566-.002-1.131-.373-1.13-.742l.039-15.122c0-.37.568-.736 1.134-.733l15.86.066zm-33.983-.142c.566.003 1.131.374 1.13.743l-.038 15.122c-.001.369-.569.735-1.135.733l-15.86-.066c-.566-.002-1.131-.374-1.13-.742l.039-15.123c0-.368.568-.735 1.134-.733l15.86.066zm-33.984-.141c.566.002 1.132.374 1.13.742l-.038 15.123c-.001.368-.569.735-1.135.733l-15.86-.066c-.566-.003-1.131-.374-1.13-.743l.039-15.122c0-.369.568-.735 1.135-.733l15.859.066zm-33.418-.139c.567.002 1.132.374 1.131.742l-.039 15.123c0 .368-.568.735-1.134.733l-15.86-.066c-.566-.003-1.131-.374-1.13-.743l.039-15.122c0-.369.568-.735 1.134-.733l15.86.066zm-33.983-.141c.566.002 1.131.373 1.13.742l-.039 15.122c0 .37-.568.736-1.134.733l-16.426-.068c-.566-.002-1.132-.374-1.13-.743l.038-15.122c.001-.369.569-.735 1.135-.733l16.426.069zm156.342-5.99l-130.271-.541.23-89.627 130.272.542-.23 89.627zm46.735-112.3c.566.002 1.131.373 1.13.742l-.039 15.122c0 .369-.568.735-1.134.733l-15.86-.066c-.566-.002-1.131-.373-1.13-.742l.039-15.122c0-.37.568-.736 1.134-.733l15.86.066zm-33.418-.14c.567.003 1.132.374 1.131.743l-.039 15.122c0 .369-.568.735-1.135.733l-15.859-.066c-.566-.002-1.132-.373-1.13-.742l.038-15.123c.001-.368.569-.735 1.135-.732l15.86.066zm-33.984-.14c.567.001 1.132.373 1.131.742l-.039 15.122c0 .369-.568.735-1.134.733l-15.86-.066c-.566-.003-1.131-.374-1.13-.743l.038-15.122c.001-.369.569-.735 1.135-.733l15.86.066zm-33.984-.142c.567.002 1.132.373 1.131.742l-.039 15.122c0 .37-.568.736-1.134.733l-15.86-.066c-.566-.002-1.131-.373-1.13-.742l.039-15.122c0-.37.568-.736 1.134-.733l15.86.066zm-33.983-.142c.566.003 1.131.374 1.13.743l-.038 15.122c-.001.369-.569.735-1.135.733l-15.86-.066c-.566-.002-1.131-.374-1.13-.742l.039-15.123c0-.368.568-.735 1.135-.733l15.859.066zM90.137 81.7c.567.003 1.132.374 1.131.743l-.039 15.122c0 .369-.568.735-1.135.733l-15.859-.066c-.566-.002-1.131-.374-1.13-.742l.038-15.123c.001-.368.569-.735 1.135-.733l15.86.066zm-33.984-.141c.567.002 1.132.374 1.131.742l-.039 15.123c0 .368-.568.735-1.134.733l-16.426-.069c-.566-.002-1.132-.373-1.13-.742l.038-15.122c.001-.37.568-.736 1.135-.733l16.425.068z M183.046 135.968l-30.005-14.286c-1.758-.885-4.326-.885-6.083 0l-30.005 14.286c-1.082.632-1.758 1.39-1.758 2.275s.676 1.77 1.758 2.276l9.055 4.425v16.434c0 .38.27.885.676 1.138.406.127 9.326 5.183 23.653 5.183 6.758 0 12.165-1.137 16.22-2.275v3.793c-2.298.505-4.055 2.528-4.055 4.93 0 2.781 2.433 5.057 5.406 5.057s5.407-2.276 5.407-5.057c0-2.402-1.757-4.298-4.055-4.93v-4.552c2.973-1.011 4.595-2.022 4.73-2.022.406-.253.676-.632.676-1.138v-16.561c0-.127 0-.253-.135-.38l8.38-4.045c1.081-.506 1.757-1.39 1.757-2.276.135-.885-.54-1.643-1.622-2.275zm-12.435 38.053c0 1.39-1.216 2.528-2.703 2.528s-2.703-1.138-2.703-2.528 1.216-2.529 2.703-2.529 2.703 1.138 2.703 2.529zm-20.274-8.85c-11.488 0-19.328-3.413-21.625-4.551v-14.412l18.246 8.723c.811.38 1.893.632 2.974.632 1.081 0 2.162-.253 2.973-.632l13.516-6.448v14.286c-3.784 1.138-9.326 2.402-16.084 2.402zm21.626-4.551c-.54.253-1.487.632-2.703 1.138v-14.539l2.703-1.264v14.665zm9.867-22.25l-30.006 14.285c-.946.506-2.703.506-3.514 0l-30.141-14.285 30.006-14.412c.946-.506 2.703-.506 3.514 0l30.14 14.412c0-.127 0-.127 0 0zm-46.496-2.781c-.27-.633-1.08-.885-1.757-.506l-5.406 2.528c-.676.253-.946 1.012-.54 1.644.27.505.675.758 1.216.758.135 0 .405 0 .54-.126l5.407-2.529c.54-.505.81-1.264.54-1.77zm3.65 1.896l-5.407 2.528c-.675.253-.946 1.012-.54 1.644.27.505.675.758 1.216.758.135 0 .406 0 .54-.126l5.407-2.529c.676-.252.946-1.011.54-1.643-.405-.632-1.216-.885-1.756-.632z"/></g>

        <linearGradient id="picture-gradient" x1="0" y1="0" y2="1" x2="0" >
            <stop stop-color="#e5ff60" offset="0%"/>
            <stop stop-color="#ffa260" offset="100%"/>
        </linearGradient>

    </defs>



    <use xlink:href="#background" fill="url(#background-gradient)" />



    <g mask="url(#mask)">
        <g transform="
				        translate(
                                50 50
)
                            translate(0 0)  scale(0.675)
                            translate(
                                -50 -50
)">
            <use xlink:href="#picture" fill="url(#picture-gradient)"  />
        </g>
    </g>





</svg>
